<?xml version="1.0" encoding="UTF-8"?>
<!DOCTYPE svg PUBLIC "-//W3C//DTD SVG 1.1//EN" "http://www.w3.org/Graphics/SVG/1.1/DTD/svg11.dtd">
<!-- Creator: CorelDRAW 2021 (64-Bit) -->
<svg xmlns="http://www.w3.org/2000/svg" xml:space="preserve" width="131.097mm" height="159.569mm" version="1.1" style="shape-rendering:geometricPrecision; text-rendering:geometricPrecision; image-rendering:optimizeQuality; fill-rule:evenodd; clip-rule:evenodd"
viewBox="0 0 13109.68 15956.92"
 xmlns:xlink="http://www.w3.org/1999/xlink"
 xmlns:xodm="http://www.corel.com/coreldraw/odm/2003">
 <defs>
  <style type="text/css">
   <![CDATA[
    .fil6 {fill:none}
    .fil1 {fill:#FEFEFE}
    .fil5 {fill:#3E4095}
    .fil3 {fill:#28AAE2}
    .fil2 {fill:#BDD63A}
    .fil4 {fill:#FFB300}
    .fil7 {fill:#FEFEFE;fill-rule:nonzero}
    .fil0 {fill:#373435;fill-rule:nonzero}
   ]]>
  </style>
    <clipPath id="id0">
     <path d="M6554.84 0c3620.23,0 6554.84,2970.53 6554.84,6634.91 0,3664.38 -2934.61,6634.9 -6554.84,6634.9 -3620.22,0 -6554.84,-2970.52 -6554.84,-6634.9 0,-3664.38 2934.62,-6634.91 6554.84,-6634.91z"/>
    </clipPath>
     <clipPath id="id1">
      <path d="M3642.69 2817.95l6938.16 0 0 6807.8 -6938.16 0 0 -6807.8z"/>
     </clipPath>
     <clipPath id="id2">
      <path d="M6554.84 0c3620.23,0 6554.84,2970.53 6554.84,6634.91 0,3664.38 -2934.61,6634.9 -6554.84,6634.9 -3620.22,0 -6554.84,-2970.52 -6554.84,-6634.9 0,-3664.38 2934.62,-6634.91 6554.84,-6634.91z"/>
     </clipPath>
     <clipPath id="id3">
      <path d="M4542.81 9112.24l-66.82 -141.89 342.92 -1218.52 -18.02 -3.57 101.73 -211.72 -16.33 -58.37 71.32 -148.47 -54.8 -72.83 117.69 -138.14 35.09 -94.03 -43.73 -12.39 61.76 -157.67 -216.42 -212.66 62.13 -261.83 288.49 -51.43 13.32 -38.85 48.05 -4.5 26.84 -68.89 -49.36 -34.16 150.34 -331.65 -22.52 -1.5 70.2 -372.39 54.43 -38.48 108.67 -559.33 -27.4 -138.89 45.61 -18.59 8.25 -68.12 38.85 -94.04 18.96 -116.19 44.49 -42.23 -23.84 -151.65 50.87 -332.97 33.4 -61.38 -0.75 -0.56 -162.73 29.28 -97.22 -39.98 -68.7 3.19 -18.21 43.36 -112.05 -28.16 -5.26 19.34 -439.39 32.66 -271.03 140.58 0 26.65 -301.44 167.61 -99.47 -184.69 129.88 -212.09 133.08 -140.22 395.28 -219.97 355.49 -68.88 384.59 -42.24 46.18 21.58 60.99 -28.71 326.22 42.42 43.55 -14.08 24.77 -7.7 25.15 -7.12 23.84 -4.32 23.09 -2.63 23.09 -0.94 21.76 1.5 22.15 3.57 19.71 6.01 114.87 51.61 104.92 -17.27 595.55 162.17 71.14 -14.45 141.52 95.91 180.19 24.4 617.52 439.77 16.89 72.45 103.42 31.72 20.65 124.44 61.19 24.02 170.98 420.82 0 316.45 -15.57 6.76 14.82 63.26 -69.07 185.62 5.63 139.46 -65.51 34.35 -29.84 84.46 -452.71 501.15 -235.75 172.11 -29.66 20.09 -27.96 18.76 -25.9 17.09 -24.78 15.2 -23.47 13.51 -21.77 12.95 -19.89 10.89 -18.58 9.57 -689.59 336.35 -328.28 97.97 -56.31 -24.96 -109.42 25.71 24.21 35.48 148.84 125.95 -1.88 26.27 39.6 4.88 49.55 113.18 173.63 104.92 -4.13 50.68 199.89 146.96 -25.33 40.18 43.16 38.1 -3.19 -22.91 421 293.94 -11.26 20.07 113.93 44.87 61.94 94.41 577.91 343.66 70.38 16.71 103.61 12.39 69.64 60.63 58.37 -14.08 98.17 56.87 283.04 9.95 296.37 -43.73 377.08 -249.08 91.4 -255.45 30.79 -7.13 -11.27 -38.29 83.9 -42.23 148.47 -346.3 210.03 -79.02 81.64 245.7 -58.37 143.39 -95.15 382.15 -140.4 183.75 -12.39 8.26 45.8 12.95 -508.09 380.83 -158.23 28.72 -59.69 120.5 -128.94 -64.19 -503.02 67.95 -292.24 4.13 -468.11 -163.29 -271.04 -171.38 -71.51 39.8 -122.56 -118.44 -102.67 -19.71 -184.13 -155.41 -208.72 -84.83 -167.23 -134.02 -12.02 -49.55 -143.77 -72.27 -71.89 -114.86 -85.4 0 -111.11 -184.88 -264.09 -189.57 4.5 -57.82 -220.54 -187.88 -0.75 2.25 -19.14 3.76 9.2 15.96 -82.59 110.92 33.04 84.84 -120.13 204.97 -37.16 174.36 -13.89 12.57 15.01 7.32 -255.45 592.37 6.38 10.33 -52.18 211.15 -63.44 50.68 19.9 113.37 -91.6 155.03 -137.95 79.39 -309.7 28.35zm3125.49 -3995.09l-11.44 -135.51 5.25 -14.83 -38.86 -23.27 -82.2 -251.14 -82.59 -96.1 -22.15 -92.72 -125.37 -94.78 -12.21 -75.83 -378.58 -254.71 -156.72 -34.71 -103.99 -7.52 -29.09 83.53 88.59 95.92 -111.3 49.35 -3.75 170.06 -62.13 71.32 -45.05 244.76 -53.68 33.21 9.95 32.66 -109.05 309.13 27.59 113.38 -69.82 61.37 -55.37 213.04 -18.96 13.89 6.38 7.69 -152.78 410.11 -71.51 114.31 42.41 27.97 -123.5 227.67 29.28 46.73 -29.28 69.83 56.5 47.68 193.33 -24.97 0 40.54 43.73 -2.44 54.99 -60.06 92.53 23.27 2.07 -5.82 372.76 -113.92 112.24 0 79.58 -57.44 87.28 -4.13 126.51 -67.76 344.98 -282.1 156.73 -390.59 56.12 -381.77 -39.42 -35.3z"/>
     </clipPath>
      <clipPath id="id4">
       <path d="M4833.51 7680.37l69.11 -143.83 -16.33 -58.37 71.32 -148.47 -54.8 -72.83 117.69 -138.14 35.09 -94.03 -43.73 -12.39 61.76 -157.67 -216.42 -212.66 62.13 -261.83 288.49 -51.43 13.32 -38.85 48.05 -4.5 26.84 -68.89 -49.36 -34.16 150.34 -331.65 -22.52 -1.5 70.2 -372.39 54.43 -38.48 108.67 -559.33 -27.4 -138.89 45.61 -18.59 8.25 -68.12 38.85 -94.04 18.96 -116.19 44.49 -42.23 -23.84 -151.65 50.87 -332.97 33.4 -61.38 -0.75 -0.56 -162.73 29.28 -97.22 -39.98 -68.7 3.19 -18.21 43.36 -112.05 -28.16 -5.26 19.34 -439.39 32.66 -271.03 140.58 0 26.65 -301.44 167.61 -99.47 -184.69 129.88 -212.09 133.08 -140.22 395.28 -219.97 355.49 -68.88 384.59 -42.24 46.18 21.58 60.99 -28.71 326.22 42.42 43.55 -14.08 24.77 -7.7 25.15 -7.12 23.84 -4.32 23.09 -2.63 23.09 -0.94 21.76 1.5 22.15 3.57 19.71 6.01 114.87 51.61 104.92 -17.27 595.55 162.17 71.14 -14.45 141.52 95.91 180.19 24.4 617.52 439.77 16.89 72.45 103.42 31.72 20.65 124.44 61.19 24.02 170.98 420.82 0 316.45 -15.57 6.76 14.82 63.26 -69.07 185.62 5.63 139.46 -65.51 34.35 -29.84 84.46 -452.71 501.15 -235.75 172.11 -29.66 20.09 -27.96 18.76 -25.9 17.09 -24.78 15.2 -23.47 13.51 -21.77 12.95 -19.89 10.89 -18.58 9.57 -689.59 336.35 -328.28 97.97 -56.31 -24.96 -109.42 25.71 24.21 35.48 148.84 125.95 -1.88 26.27 39.6 4.88 49.55 113.18 173.63 104.92 -4.13 50.68 199.89 146.96 -25.33 40.18 43.16 38.1 -3.19 -22.91 220.53 153.97 -1009.53 0 -250.83 -180.05 4.5 -57.82 -220.54 -187.88 -0.75 2.25 -19.14 3.76 9.2 15.96 -82.59 110.92 33.04 84.84 -120.13 204.97 -0.65 3.05 -628.73 0zm4844.73 0l84.36 -196.76 210.03 -79.02 81.64 245.7 -12.24 30.08 -363.79 0zm-2009.94 -2563.22l-11.44 -135.51 5.25 -14.83 -38.86 -23.27 -82.2 -251.14 -82.59 -96.1 -22.15 -92.72 -125.37 -94.78 -12.21 -75.83 -378.58 -254.71 -156.72 -34.71 -103.99 -7.52 -29.09 83.53 88.59 95.92 -111.3 49.35 -3.75 170.06 -62.13 71.32 -45.05 244.76 -53.68 33.21 9.95 32.66 -109.05 309.13 27.59 113.38 -69.82 61.37 -55.37 213.04 -18.96 13.89 6.38 7.69 -152.78 410.11 -71.51 114.31 42.41 27.97 -123.5 227.67 29.28 46.73 -29.28 69.83 56.5 47.68 193.33 -24.97 0 40.54 43.73 -2.44 54.99 -60.06 92.53 23.27 2.07 -5.82 372.76 -113.92 112.24 0 79.58 -57.44 87.28 -4.13 126.51 -67.76 344.98 -282.1 156.73 -390.59 56.12 -381.77 -39.42 -35.3z"/>
      </clipPath>
      <clipPath id="id5">
       <path d="M4542.81 9112.24l-66.82 -141.89 342.92 -1218.52 -18.02 -3.57 101.73 -211.72 -16.33 -58.37 71.32 -148.47 -54.8 -72.83 117.69 -138.14 35.09 -94.03 -43.73 -12.39 61.76 -157.67 -216.42 -212.66 62.13 -261.83 288.49 -51.43 13.32 -38.85 48.05 -4.5 26.84 -68.89 -49.36 -34.16 150.34 -331.65 -22.52 -1.5 70.2 -372.39 54.43 -38.48 108.67 -559.33 -27.4 -138.89 45.61 -18.59 8.25 -68.12 38.85 -94.04 18.96 -116.19 44.49 -42.23 -23.84 -151.65 50.87 -332.97 33.4 -61.38 -0.75 -0.56 -162.73 29.28 -97.22 -39.98 -68.7 3.19 -18.21 43.36 -112.05 -28.16 -5.26 19.34 -439.39 32.66 -271.03 140.58 0 26.65 -301.44 167.61 -99.47 -184.69 129.88 -212.09 133.08 -140.22 395.28 -219.97 355.49 -68.88 384.59 -42.24 46.18 21.58 60.99 -28.71 326.22 42.42 43.55 -14.08 24.77 -7.7 25.15 -7.12 23.84 -4.32 23.09 -2.63 23.09 -0.94 21.76 1.5 22.15 3.57 19.71 6.01 114.87 51.61 104.92 -17.27 595.55 162.17 71.14 -14.45 141.52 95.91 180.19 24.4 617.52 439.77 16.89 72.45 103.42 31.72 20.65 124.44 61.19 24.02 170.98 420.82 0 316.45 -15.57 6.76 14.82 63.26 -69.07 185.62 5.63 139.46 -65.51 34.35 -29.84 84.46 -452.71 501.15 -235.75 172.11 -29.66 20.09 -27.96 18.76 -25.9 17.09 -24.78 15.2 -23.47 13.51 -21.77 12.95 -19.89 10.89 -18.58 9.57 -689.59 336.35 -328.28 97.97 -56.31 -24.96 -109.42 25.71 24.21 35.48 148.84 125.95 -1.88 26.27 39.6 4.88 49.55 113.18 173.63 104.92 -4.13 50.68 199.89 146.96 -25.33 40.18 43.16 38.1 -3.19 -22.91 421 293.94 -11.26 20.07 113.93 44.87 61.94 94.41 577.91 343.66 70.38 16.71 103.61 12.39 69.64 60.63 58.37 -14.08 98.17 56.87 283.04 9.95 296.37 -43.73 377.08 -249.08 91.4 -255.45 30.79 -7.13 -11.27 -38.29 83.9 -42.23 148.47 -346.3 210.03 -79.02 81.64 245.7 -58.37 143.39 -95.15 382.15 -140.4 183.75 -12.39 8.26 45.8 12.95 -508.09 380.83 -158.23 28.72 -59.69 120.5 -128.94 -64.19 -503.02 67.95 -292.24 4.13 -468.11 -163.29 -271.04 -171.38 -71.51 39.8 -122.56 -118.44 -102.67 -19.71 -184.13 -155.41 -208.72 -84.83 -167.23 -134.02 -12.02 -49.55 -143.77 -72.27 -71.89 -114.86 -85.4 0 -111.11 -184.88 -264.09 -189.57 4.5 -57.82 -220.54 -187.88 -0.75 2.25 -19.14 3.76 9.2 15.96 -82.59 110.92 33.04 84.84 -120.13 204.97 -37.16 174.36 -13.89 12.57 15.01 7.32 -255.45 592.37 6.38 10.33 -52.18 211.15 -63.44 50.68 19.9 113.37 -91.6 155.03 -137.95 79.39 -309.7 28.35zm3125.49 -3995.09l-11.44 -135.51 5.25 -14.83 -38.86 -23.27 -82.2 -251.14 -82.59 -96.1 -22.15 -92.72 -125.37 -94.78 -12.21 -75.83 -378.58 -254.71 -156.72 -34.71 -103.99 -7.52 -29.09 83.53 88.59 95.92 -111.3 49.35 -3.75 170.06 -62.13 71.32 -45.05 244.76 -53.68 33.21 9.95 32.66 -109.05 309.13 27.59 113.38 -69.82 61.37 -55.37 213.04 -18.96 13.89 6.38 7.69 -152.78 410.11 -71.51 114.31 42.41 27.97 -123.5 227.67 29.28 46.73 -29.28 69.83 56.5 47.68 193.33 -24.97 0 40.54 43.73 -2.44 54.99 -60.06 92.53 23.27 2.07 -5.82 372.76 -113.92 112.24 0 79.58 -57.44 87.28 -4.13 126.51 -67.76 344.98 -282.1 156.73 -390.59 56.12 -381.77 -39.42 -35.3z"/>
      </clipPath>
      <clipPath id="id6">
       <path d="M4542.81 9112.24l-66.82 -141.89 342.92 -1218.52 -18.02 -3.57 101.73 -211.72 -16.33 -58.37 71.32 -148.47 -54.8 -72.83 117.69 -138.14 35.09 -94.03 -43.73 -12.39 61.76 -157.67 -216.42 -212.66 62.13 -261.83 288.49 -51.43 13.32 -38.85 48.05 -4.5 26.84 -68.89 -49.36 -34.16 150.34 -331.65 -22.52 -1.5 70.2 -372.39 54.43 -38.48 108.67 -559.33 -27.4 -138.89 45.61 -18.59 8.25 -68.12 38.85 -94.04 18.96 -116.19 44.49 -42.23 -23.84 -151.65 50.87 -332.97 33.4 -61.38 -0.75 -0.56 -162.73 29.28 -97.22 -39.98 -68.7 3.19 -18.21 43.36 -112.05 -28.16 -5.26 19.34 -439.39 32.66 -271.03 140.58 0 26.65 -301.44 167.61 -99.47 -184.69 129.88 -212.09 133.08 -140.22 395.28 -219.97 355.49 -68.88 384.59 -42.24 46.18 21.58 60.99 -28.71 326.22 42.42 43.55 -14.08 24.77 -7.7 25.15 -7.12 23.84 -4.32 23.09 -2.63 23.09 -0.94 21.76 1.5 22.15 3.57 19.71 6.01 114.87 51.61 104.92 -17.27 595.55 162.17 71.14 -14.45 141.52 95.91 180.19 24.4 617.52 439.77 16.89 72.45 103.42 31.72 20.65 124.44 61.19 24.02 170.98 420.82 0 316.45 -15.57 6.76 14.82 63.26 -69.07 185.62 5.63 139.46 -65.51 34.35 -29.84 84.46 -452.71 501.15 -235.75 172.11 -29.66 20.09 -27.96 18.76 -25.9 17.09 -24.78 15.2 -23.47 13.51 -21.77 12.95 -19.89 10.89 -18.58 9.57 -689.59 336.35 -328.28 97.97 -56.31 -24.96 -109.42 25.71 24.21 35.48 148.84 125.95 -1.88 26.27 39.6 4.88 49.55 113.18 173.63 104.92 -4.13 50.68 199.89 146.96 -25.33 40.18 43.16 38.1 -3.19 -22.91 421 293.94 -11.26 20.07 113.93 44.87 61.94 94.41 577.91 343.66 70.38 16.71 103.61 12.39 69.64 60.63 58.37 -14.08 98.17 56.87 283.04 9.95 296.37 -43.73 377.08 -249.08 91.4 -255.45 30.79 -7.13 -11.27 -38.29 83.9 -42.23 148.47 -346.3 210.03 -79.02 81.64 245.7 -58.37 143.39 -95.15 382.15 -140.4 183.75 -12.39 8.26 45.8 12.95 -508.09 380.83 -158.23 28.72 -59.69 120.5 -128.94 -64.19 -503.02 67.95 -292.24 4.13 -468.11 -163.29 -271.04 -171.38 -71.51 39.8 -122.56 -118.44 -102.67 -19.71 -184.13 -155.41 -208.72 -84.83 -167.23 -134.02 -12.02 -49.55 -143.77 -72.27 -71.89 -114.86 -85.4 0 -111.11 -184.88 -264.09 -189.57 4.5 -57.82 -220.54 -187.88 -0.75 2.25 -19.14 3.76 9.2 15.96 -82.59 110.92 33.04 84.84 -120.13 204.97 -37.16 174.36 -13.89 12.57 15.01 7.32 -255.45 592.37 6.38 10.33 -52.18 211.15 -63.44 50.68 19.9 113.37 -91.6 155.03 -137.95 79.39 -309.7 28.35zm3125.49 -3995.09l-11.44 -135.51 5.25 -14.83 -38.86 -23.27 -82.2 -251.14 -82.59 -96.1 -22.15 -92.72 -125.37 -94.78 -12.21 -75.83 -378.58 -254.71 -156.72 -34.71 -103.99 -7.52 -29.09 83.53 88.59 95.92 -111.3 49.35 -3.75 170.06 -62.13 71.32 -45.05 244.76 -53.68 33.21 9.95 32.66 -109.05 309.13 27.59 113.38 -69.82 61.37 -55.37 213.04 -18.96 13.89 6.38 7.69 -152.78 410.11 -71.51 114.31 42.41 27.97 -123.5 227.67 29.28 46.73 -29.28 69.83 56.5 47.68 193.33 -24.97 0 40.54 43.73 -2.44 54.99 -60.06 92.53 23.27 2.07 -5.82 372.76 -113.92 112.24 0 79.58 -57.44 87.28 -4.13 126.51 -67.76 344.98 -282.1 156.73 -390.59 56.12 -381.77 -39.42 -35.3z"/>
      </clipPath>
      <clipPath id="id7">
       <path d="M4542.81 9112.24l-66.82 -141.89 342.92 -1218.52 -18.02 -3.57 101.73 -211.72 -16.33 -58.37 71.32 -148.47 -54.8 -72.83 117.69 -138.14 35.09 -94.03 -43.73 -12.39 61.76 -157.67 -216.42 -212.66 62.13 -261.83 288.49 -51.43 13.32 -38.85 48.05 -4.5 26.84 -68.89 -49.36 -34.16 150.34 -331.65 -22.52 -1.5 70.2 -372.39 54.43 -38.48 108.67 -559.33 -27.4 -138.89 45.61 -18.59 8.25 -68.12 38.85 -94.04 18.96 -116.19 44.49 -42.23 -23.84 -151.65 50.87 -332.97 33.4 -61.38 -0.75 -0.56 -162.73 29.28 -97.22 -39.98 -68.7 3.19 -18.21 43.36 -112.05 -28.16 -5.26 19.34 -439.39 32.66 -271.03 140.58 0 26.65 -301.44 167.61 -99.47 -184.69 129.88 -212.09 133.08 -140.22 395.28 -219.97 355.49 -68.88 384.59 -42.24 46.18 21.58 60.99 -28.71 326.22 42.42 43.55 -14.08 24.77 -7.7 25.15 -7.12 23.84 -4.32 23.09 -2.63 23.09 -0.94 21.76 1.5 22.15 3.57 19.71 6.01 114.87 51.61 104.92 -17.27 595.55 162.17 71.14 -14.45 141.52 95.91 180.19 24.4 617.52 439.77 16.89 72.45 103.42 31.72 20.65 124.44 61.19 24.02 170.98 420.82 0 316.45 -15.57 6.76 14.82 63.26 -69.07 185.62 5.63 139.46 -65.51 34.35 -29.84 84.46 -452.71 501.15 -235.75 172.11 -29.66 20.09 -27.96 18.76 -25.9 17.09 -24.78 15.2 -23.47 13.51 -21.77 12.95 -19.89 10.89 -18.58 9.57 -689.59 336.35 -328.28 97.97 -56.31 -24.96 -109.42 25.71 24.21 35.48 148.84 125.95 -1.88 26.27 39.6 4.88 49.55 113.18 173.63 104.92 -4.13 50.68 199.89 146.96 -25.33 40.18 43.16 38.1 -3.19 -22.91 421 293.94 -11.26 20.07 113.93 44.87 61.94 94.41 577.91 343.66 70.38 16.71 103.61 12.39 69.64 60.63 58.37 -14.08 98.17 56.87 283.04 9.95 296.37 -43.73 377.08 -249.08 91.4 -255.45 30.79 -7.13 -11.27 -38.29 83.9 -42.23 148.47 -346.3 210.03 -79.02 81.64 245.7 -58.37 143.39 -95.15 382.15 -140.4 183.75 -12.39 8.26 45.8 12.95 -508.09 380.83 -158.23 28.72 -59.69 120.5 -128.94 -64.19 -503.02 67.95 -292.24 4.13 -468.11 -163.29 -271.04 -171.38 -71.51 39.8 -122.56 -118.44 -102.67 -19.71 -184.13 -155.41 -208.72 -84.83 -167.23 -134.02 -12.02 -49.55 -143.77 -72.27 -71.89 -114.86 -85.4 0 -111.11 -184.88 -264.09 -189.57 4.5 -57.82 -220.54 -187.88 -0.75 2.25 -19.14 3.76 9.2 15.96 -82.59 110.92 33.04 84.84 -120.13 204.97 -37.16 174.36 -13.89 12.57 15.01 7.32 -255.45 592.37 6.38 10.33 -52.18 211.15 -63.44 50.68 19.9 113.37 -91.6 155.03 -137.95 79.39 -309.7 28.35zm3125.49 -3995.09l-11.44 -135.51 5.25 -14.83 -38.86 -23.27 -82.2 -251.14 -82.59 -96.1 -22.15 -92.72 -125.37 -94.78 -12.21 -75.83 -378.58 -254.71 -156.72 -34.71 -103.99 -7.52 -29.09 83.53 88.59 95.92 -111.3 49.35 -3.75 170.06 -62.13 71.32 -45.05 244.76 -53.68 33.21 9.95 32.66 -109.05 309.13 27.59 113.38 -69.82 61.37 -55.37 213.04 -18.96 13.89 6.38 7.69 -152.78 410.11 -71.51 114.31 42.41 27.97 -123.5 227.67 29.28 46.73 -29.28 69.83 56.5 47.68 193.33 -24.97 0 40.54 43.73 -2.44 54.99 -60.06 92.53 23.27 2.07 -5.82 372.76 -113.92 112.24 0 79.58 -57.44 87.28 -4.13 126.51 -67.76 344.98 -282.1 156.73 -390.59 56.12 -381.77 -39.42 -35.3z"/>
      </clipPath>
      <clipPath id="id8">
       <path d="M4542.81 9112.24l-66.82 -141.89 342.92 -1218.52 -18.02 -3.57 101.73 -211.72 -16.33 -58.37 71.32 -148.47 -54.8 -72.83 117.69 -138.14 35.09 -94.03 -43.73 -12.39 61.76 -157.67 -216.42 -212.66 62.13 -261.83 288.49 -51.43 13.32 -38.85 48.05 -4.5 26.84 -68.89 -49.36 -34.16 150.34 -331.65 -22.52 -1.5 70.2 -372.39 54.43 -38.48 93.54 -481.48 810.94 0 -59.67 169.15 27.59 113.38 -69.82 61.37 -55.37 213.04 -18.96 13.89 6.38 7.69 -152.78 410.11 -71.51 114.31 42.41 27.97 -123.5 227.67 29.28 46.73 -29.28 69.83 56.5 47.68 193.33 -24.97 0 40.54 43.73 -2.44 54.99 -60.06 92.53 23.27 2.07 -5.82 372.76 -113.92 112.24 0 79.58 -57.44 87.28 -4.13 126.51 -67.76 344.98 -282.1 156.73 -390.59 56.12 -381.77 -39.42 -35.3 -11.44 -135.51 5.25 -14.83 -16.68 -9.99 832.96 0 0 165.59 -15.57 6.76 14.82 63.26 -69.07 185.62 5.63 139.46 -65.51 34.35 -29.84 84.46 -452.71 501.15 -235.75 172.11 -29.66 20.09 -27.96 18.76 -25.9 17.09 -24.78 15.2 -23.47 13.51 -21.77 12.95 -19.89 10.89 -18.58 9.57 -689.59 336.35 -328.28 97.97 -56.31 -24.96 -109.42 25.71 24.21 35.48 148.84 125.95 -1.88 26.27 39.6 4.88 49.55 113.18 173.63 104.92 -4.13 50.68 199.89 146.96 -25.33 40.18 43.16 38.1 -3.19 -22.91 421 293.94 -11.26 20.07 113.93 44.87 61.94 94.41 577.91 343.66 70.38 16.71 103.61 12.39 69.64 60.63 58.37 -14.08 98.17 56.87 283.04 9.95 296.37 -43.73 377.08 -249.08 91.4 -255.45 30.79 -7.13 -11.27 -38.29 83.9 -42.23 148.47 -346.3 210.03 -79.02 81.64 245.7 -58.37 143.39 -95.15 382.15 -140.4 183.75 -12.39 8.26 45.8 12.95 -508.09 380.83 -158.23 28.72 -59.69 120.5 -128.94 -64.19 -503.02 67.95 -292.24 4.13 -468.11 -163.29 -271.04 -171.38 -71.51 39.8 -122.56 -118.44 -102.67 -19.71 -184.13 -155.41 -208.72 -84.83 -167.23 -134.02 -12.02 -49.55 -143.77 -72.27 -71.89 -114.86 -85.4 0 -111.11 -184.88 -264.09 -189.57 4.5 -57.82 -220.54 -187.88 -0.75 2.25 -19.14 3.76 9.2 15.96 -82.59 110.92 33.04 84.84 -120.13 204.97 -37.16 174.36 -13.89 12.57 15.01 7.32 -255.45 592.37 6.38 10.33 -52.18 211.15 -63.44 50.68 19.9 113.37 -91.6 155.03 -137.95 79.39 -309.7 28.35z"/>
      </clipPath>
      <clipPath id="id9">
       <path d="M4542.81 9112.24l-66.82 -141.89 342.92 -1218.52 -18.02 -3.57 101.73 -211.72 -16.33 -58.37 71.32 -148.47 -54.8 -72.83 117.69 -138.14 35.09 -94.03 -43.73 -12.39 61.76 -157.67 -216.42 -212.66 62.13 -261.83 288.49 -51.43 13.32 -38.85 48.05 -4.5 26.84 -68.89 -49.36 -34.16 150.34 -331.65 -22.52 -1.5 70.2 -372.39 54.43 -38.48 108.67 -559.33 -27.4 -138.89 45.61 -18.59 8.25 -68.12 38.85 -94.04 18.96 -116.19 44.49 -42.23 -23.84 -151.65 50.87 -332.97 33.4 -61.38 -0.75 -0.56 -162.73 29.28 -97.22 -39.98 -68.7 3.19 -18.21 43.36 -112.05 -28.16 -5.26 19.34 -439.39 32.66 -271.03 140.58 0 26.65 -301.44 167.61 -99.47 -184.69 129.88 -212.09 133.08 -140.22 395.28 -219.97 355.49 -68.88 384.59 -42.24 46.18 21.58 60.99 -28.71 326.22 42.42 43.55 -14.08 24.77 -7.7 25.15 -7.12 23.84 -4.32 23.09 -2.63 23.09 -0.94 21.76 1.5 22.15 3.57 19.71 6.01 114.87 51.61 104.92 -17.27 595.55 162.17 71.14 -14.45 141.52 95.91 180.19 24.4 617.52 439.77 16.89 72.45 103.42 31.72 20.65 124.44 61.19 24.02 170.98 420.82 0 316.45 -15.57 6.76 14.82 63.26 -69.07 185.62 5.63 139.46 -65.51 34.35 -29.84 84.46 -452.71 501.15 -235.75 172.11 -29.66 20.09 -27.96 18.76 -25.9 17.09 -24.78 15.2 -23.47 13.51 -21.77 12.95 -19.89 10.89 -18.58 9.57 -689.59 336.35 -328.28 97.97 -56.31 -24.96 -109.42 25.71 24.21 35.48 148.84 125.95 -1.88 26.27 39.6 4.88 49.55 113.18 173.63 104.92 -4.13 50.68 199.89 146.96 -25.33 40.18 43.16 38.1 -3.19 -22.91 421 293.94 -11.26 20.07 113.93 44.87 61.94 94.41 577.91 343.66 70.38 16.71 103.61 12.39 69.64 60.63 58.37 -14.08 98.17 56.87 283.04 9.95 296.37 -43.73 377.08 -249.08 91.4 -255.45 30.79 -7.13 -11.27 -38.29 83.9 -42.23 148.47 -346.3 210.03 -79.02 81.64 245.7 -58.37 143.39 -95.15 382.15 -140.4 183.75 -12.39 8.26 45.8 12.95 -508.09 380.83 -158.23 28.72 -59.69 120.5 -128.94 -64.19 -503.02 67.95 -292.24 4.13 -468.11 -163.29 -271.04 -171.38 -71.51 39.8 -122.56 -118.44 -102.67 -19.71 -184.13 -155.41 -208.72 -84.83 -167.23 -134.02 -12.02 -49.55 -143.77 -72.27 -71.89 -114.86 -85.4 0 -111.11 -184.88 -264.09 -189.57 4.5 -57.82 -220.54 -187.88 -0.75 2.25 -19.14 3.76 9.2 15.96 -82.59 110.92 33.04 84.84 -120.13 204.97 -37.16 174.36 -13.89 12.57 15.01 7.32 -255.45 592.37 6.38 10.33 -52.18 211.15 -63.44 50.68 19.9 113.37 -91.6 155.03 -137.95 79.39 -309.7 28.35zm3125.49 -3995.09l-11.44 -135.51 5.25 -14.83 -38.86 -23.27 -82.2 -251.14 -82.59 -96.1 -22.15 -92.72 -125.37 -94.78 -12.21 -75.83 -378.58 -254.71 -156.72 -34.71 -103.99 -7.52 -29.09 83.53 88.59 95.92 -111.3 49.35 -3.75 170.06 -62.13 71.32 -45.05 244.76 -53.68 33.21 9.95 32.66 -109.05 309.13 27.59 113.38 -69.82 61.37 -55.37 213.04 -18.96 13.89 6.38 7.69 -152.78 410.11 -71.51 114.31 42.41 27.97 -123.5 227.67 29.28 46.73 -29.28 69.83 56.5 47.68 193.33 -24.97 0 40.54 43.73 -2.44 54.99 -60.06 92.53 23.27 2.07 -5.82 372.76 -113.92 112.24 0 79.58 -57.44 87.28 -4.13 126.51 -67.76 344.98 -282.1 156.73 -390.59 56.12 -381.77 -39.42 -35.3z"/>
      </clipPath>
     <clipPath id="id10">
      <path d="M6554.84 0c3620.23,0 6554.84,2970.53 6554.84,6634.91 0,3664.38 -2934.61,6634.9 -6554.84,6634.9 -3620.22,0 -6554.84,-2970.52 -6554.84,-6634.9 0,-3664.38 2934.62,-6634.91 6554.84,-6634.91z"/>
     </clipPath>
 </defs>
 <g id="Layer_x0020_1">
  <metadata id="CorelCorpID_0Corel-Layer"/>
  <g id="_1801225853728">
   <path class="fil0" d="M2043.01 14711.16l-788.54 0 0 419.29 788.54 0c60.78,0 102.14,-8.7 124.53,-26.27 22.38,-17.41 33.58,-48.66 33.58,-93.44l0 -181.43c0,-43.68 -11.2,-74.47 -33.58,-91.88 -22.39,-17.57 -63.75,-26.27 -124.53,-26.27zm-1133.52 1245.76l0 -1506.48 1288.67 0c119.71,0 206.31,22.85 260.26,69.03 53.48,46.17 80.22,120.64 80.22,222.78l0 354.16c0,101.67 -26.74,175.68 -80.22,221.85 -53.95,46.64 -140.55,70.12 -260.26,70.12l-196.51 0 695.1 568.54 -502.94 0 -607.1 -568.54 -332.24 0 0 568.54 -344.98 0zm2340.41 0l0 -1506.48 350.74 0 0 1506.48 -350.74 0zm1629.15 0l-870.77 -1506.48 400.33 0 610.05 1089.21 581.3 -1089.21 349.34 0 -827.87 1506.48 -242.38 0zm2612.8 -1245.76l-788.54 0 0 399.4 788.54 0c60.94,0 102.3,-8.71 124.68,-26.28 22.24,-17.57 33.43,-48.66 33.43,-93.44l0 -161.53c0,-43.68 -11.19,-74.47 -33.43,-91.88 -22.38,-17.57 -63.74,-26.27 -124.68,-26.27zm-1133.36 1245.76l0 -1506.48 1288.67 0c119.56,0 206.15,22.85 260.25,69.03 53.49,46.17 80.23,120.64 80.23,222.78l0 336.59c0,101.68 -26.74,175.68 -80.23,221.85 -54.1,46.33 -140.69,69.19 -260.25,69.19l-943.85 0 0 587.04 -344.82 0zm3302.6 -1245.76l-788.53 0 0 419.29 788.53 0c60.79,0 102.15,-8.7 124.53,-26.27 22.39,-17.41 33.58,-48.66 33.58,-93.44l0 -181.43c0,-43.68 -11.19,-74.47 -33.58,-91.88 -22.38,-17.57 -63.74,-26.27 -124.53,-26.27zm-1133.51 1245.76l0 -1506.48 1288.67 0c119.71,0 206.31,22.85 260.25,69.03 53.48,46.17 80.38,120.64 80.38,222.78l0 354.16c0,101.67 -26.9,175.68 -80.38,221.85 -53.94,46.64 -140.54,70.12 -260.25,70.12l-196.51 0 695.25 568.54 -503.09 0 -607.11 -568.54 -332.23 0 0 568.54 -344.98 0zm2622.59 -601.19l659.65 0 -324.93 -613.01 -334.72 613.01zm-674.27 601.19l852.28 -1506.48 337.67 0 863.94 1506.48 -393.49 0 -180.97 -328.81 -955.04 0 -175.05 328.81 -349.34 0z"/>
   <path class="fil1" d="M6554.84 0c3620.23,0 6554.84,2970.53 6554.84,6634.91 0,3664.38 -2934.61,6634.9 -6554.84,6634.9 -3620.22,0 -6554.84,-2970.52 -6554.84,-6634.9 0,-3664.38 2934.62,-6634.91 6554.84,-6634.91z"/>
   <g style="clip-path:url(#id0)">
    <g>
    </g>
    <g style="clip-path:url(#id1)">
     <image x="3642.69" y="2817.92" width="6938.19" height="6807.83" xlink:href="Nefrolife Tabs. Carton_Images\Nefrolife Tabs. Carton_ImgID1.png"/>
    </g>
    <g style="clip-path:url(#id2)">
     <path class="fil2" d="M815.9 5669.14c0,3144.96 2549.36,5694.64 5694.32,5694.64 3145.12,0 5694.49,-2549.68 5694.49,-5694.64 0,-1122.01 -324.78,-2168.62 -885.24,-3050.75 917.26,1089.68 1470.11,2495.57 1470.11,4031.6 0,3458.23 -2803.4,6261.94 -6262.25,6261.94 -3458.39,0 -6261.94,-2803.71 -6261.94,-6261.94 0,-1458.45 498.11,-2799.67 1333.6,-3863.38 -497.5,845.43 -783.09,1830.17 -783.09,2882.53z"/>
     <path class="fil3" d="M7362.5 822.58c-2656.95,0 -4810.8,2153.85 -4810.8,4810.34 0,2657.41 2153.85,4810.8 4810.8,4810.8 947.89,0 1831.88,-274.72 2576.73,-747.96 -920.06,775.01 -2107.99,1242.19 -3405.22,1242.19 -2921.71,0 -5290.11,-2368.56 -5290.11,-5290.27 0,-2921.39 2368.4,-5290.1 5290.11,-5290.1 1231.62,0 2364.67,420.85 3263.74,1126.52 -714.38,-420.23 -1546.75,-661.52 -2435.25,-661.52z"/>
     <path class="fil4" d="M9644.77 8941.12c1544.26,-1543.8 1544.26,-4047.77 0,-5592.03 -1544.42,-1544.26 -4047.92,-1544.26 -5592.34,0 -551.13,550.67 -905.29,1224 -1063.09,1932.16 84.42,-985.2 503.41,-1946.93 1257.43,-2701.1 1698.33,-1698.34 4451.51,-1698.34 6149.84,0 1698.33,1698.17 1698.33,4451.36 0,6150 -716.08,715.62 -1619.35,1129.94 -2552,1242.19 659.49,-171.02 1283.54,-514.91 1800.16,-1031.22z"/>
     <path class="fil5" d="M4542.81 9112.24l-66.82 -141.89 342.92 -1218.52 -18.02 -3.57 101.73 -211.72 -16.33 -58.37 71.32 -148.47 -54.8 -72.83 117.69 -138.14 35.09 -94.03 -43.73 -12.39 61.76 -157.67 -216.42 -212.66 62.13 -261.83 288.49 -51.43 13.32 -38.85 48.05 -4.5 26.84 -68.89 -49.36 -34.16 150.34 -331.65 -22.52 -1.5 70.2 -372.39 54.43 -38.48 108.67 -559.33 -27.4 -138.89 45.61 -18.59 8.25 -68.12 38.85 -94.04 18.96 -116.19 44.49 -42.23 -23.84 -151.65 50.87 -332.97 33.4 -61.38 -0.75 -0.56 -162.73 29.28 -97.22 -39.98 -68.7 3.19 -18.21 43.36 -112.05 -28.16 -5.26 19.34 -439.39 32.66 -271.03 140.58 0 26.65 -301.44 167.61 -99.47 -184.69 129.88 -212.09 133.08 -140.22 395.28 -219.97 355.49 -68.88 384.59 -42.24 46.18 21.58 60.99 -28.71 326.22 42.42 43.55 -14.08 24.77 -7.7 25.15 -7.12 23.84 -4.32 23.09 -2.63 23.09 -0.94 21.76 1.5 22.15 3.57 19.71 6.01 114.87 51.61 104.92 -17.27 595.55 162.17 71.14 -14.45 141.52 95.91 180.19 24.4 617.52 439.77 16.89 72.45 103.42 31.72 20.65 124.44 61.19 24.02 170.98 420.82 0 316.45 -15.57 6.76 14.82 63.26 -69.07 185.62 5.63 139.46 -65.51 34.35 -29.84 84.46 -452.71 501.15 -235.75 172.11 -29.66 20.09 -27.96 18.76 -25.9 17.09 -24.78 15.2 -23.47 13.51 -21.77 12.95 -19.89 10.89 -18.58 9.57 -689.59 336.35 -328.28 97.97 -56.31 -24.96 -109.42 25.71 24.21 35.48 148.84 125.95 -1.88 26.27 39.6 4.88 49.55 113.18 173.63 104.92 -4.13 50.68 199.89 146.96 -25.33 40.18 43.16 38.1 -3.19 -22.91 421 293.94 -11.26 20.07 113.93 44.87 61.94 94.41 577.91 343.66 70.38 16.71 103.61 12.39 69.64 60.63 58.37 -14.08 98.17 56.87 283.04 9.95 296.37 -43.73 377.08 -249.08 91.4 -255.45 30.79 -7.13 -11.27 -38.29 83.9 -42.23 148.47 -346.3 210.03 -79.02 81.64 245.7 -58.37 143.39 -95.15 382.15 -140.4 183.75 -12.39 8.26 45.8 12.95 -508.09 380.83 -158.23 28.72 -59.69 120.5 -128.94 -64.19 -503.02 67.95 -292.24 4.13 -468.11 -163.29 -271.04 -171.38 -71.51 39.8 -122.56 -118.44 -102.67 -19.71 -184.13 -155.41 -208.72 -84.83 -167.23 -134.02 -12.02 -49.55 -143.77 -72.27 -71.89 -114.86 -85.4 0 -111.11 -184.88 -264.09 -189.57 4.5 -57.82 -220.54 -187.88 -0.75 2.25 -19.14 3.76 9.2 15.96 -82.59 110.92 33.04 84.84 -120.13 204.97 -37.16 174.36 -13.89 12.57 15.01 7.32 -255.45 592.37 6.38 10.33 -52.18 211.15 -63.44 50.68 19.9 113.37 -91.6 155.03 -137.95 79.39 -309.7 28.35zm3125.49 -3995.09l-11.44 -135.51 5.25 -14.83 -38.86 -23.27 -82.2 -251.14 -82.59 -96.1 -22.15 -92.72 -125.37 -94.78 -12.21 -75.83 -378.58 -254.71 -156.72 -34.71 -103.99 -7.52 -29.09 83.53 88.59 95.92 -111.3 49.35 -3.75 170.06 -62.13 71.32 -45.05 244.76 -53.68 33.21 9.95 32.66 -109.05 309.13 27.59 113.38 -69.82 61.37 -55.37 213.04 -18.96 13.89 6.38 7.69 -152.78 410.11 -71.51 114.31 42.41 27.97 -123.5 227.67 29.28 46.73 -29.28 69.83 56.5 47.68 193.33 -24.97 0 40.54 43.73 -2.44 54.99 -60.06 92.53 23.27 2.07 -5.82 372.76 -113.92 112.24 0 79.58 -57.44 87.28 -4.13 126.51 -67.76 344.98 -282.1 156.73 -390.59 56.12 -381.77 -39.42 -35.3z"/>
    </g>
    <g style="clip-path:url(#id3)">
     <g>
     </g>
     <g style="clip-path:url(#id4)">
      <image x="1291.41" y="564.06" width="10537.15" height="7116.31" xlink:href="Nefrolife Tabs. Carton_Images\Nefrolife Tabs. Carton_ImgID2.png"/>
     </g>
     <g style="clip-path:url(#id5)">
     </g>
     <g style="clip-path:url(#id6)">
      <image x="2075.34" y="2806.69" width="10537.04" height="7116.31" xlink:href="Nefrolife Tabs. Carton_Images\Nefrolife Tabs. Carton_ImgID3.png"/>
     </g>
     <g style="clip-path:url(#id7)">
     </g>
     <g style="clip-path:url(#id8)">
      <image x="2785.27" y="4956.79" width="10537.15" height="7116.31" xlink:href="Nefrolife Tabs. Carton_Images\Nefrolife Tabs. Carton_ImgID4.png"/>
     </g>
     <g style="clip-path:url(#id9)">
     </g>
    </g>
    <g style="clip-path:url(#id10)">
     <path class="fil6" d="M4542.81 9112.24l-66.82 -141.89 342.92 -1218.52 -18.02 -3.57 101.73 -211.72 -16.33 -58.37 71.32 -148.47 -54.8 -72.83 117.69 -138.14 35.09 -94.03 -43.73 -12.39 61.76 -157.67 -216.42 -212.66 62.13 -261.83 288.49 -51.43 13.32 -38.85 48.05 -4.5 26.84 -68.89 -49.36 -34.16 150.34 -331.65 -22.52 -1.5 70.2 -372.39 54.43 -38.48 108.67 -559.33 -27.4 -138.89 45.61 -18.59 8.25 -68.12 38.85 -94.04 18.96 -116.19 44.49 -42.23 -23.84 -151.65 50.87 -332.97 33.4 -61.38 -0.75 -0.56 -162.73 29.28 -97.22 -39.98 -68.7 3.19 -18.21 43.36 -112.05 -28.16 -5.26 19.34 -439.39 32.66 -271.03 140.58 0 26.65 -301.44 167.61 -99.47 -184.69 129.88 -212.09 133.08 -140.22 395.28 -219.97 355.49 -68.88 384.59 -42.24 46.18 21.58 60.99 -28.71 326.22 42.42 43.55 -14.08 24.77 -7.7 25.15 -7.12 23.84 -4.32 23.09 -2.63 23.09 -0.94 21.76 1.5 22.15 3.57 19.71 6.01 114.87 51.61 104.92 -17.27 595.55 162.17 71.14 -14.45 141.52 95.91 180.19 24.4 617.52 439.77 16.89 72.45 103.42 31.72 20.65 124.44 61.19 24.02 170.98 420.82 0 316.45 -15.57 6.76 14.82 63.26 -69.07 185.62 5.63 139.46 -65.51 34.35 -29.84 84.46 -452.71 501.15 -235.75 172.11 -29.66 20.09 -27.96 18.76 -25.9 17.09 -24.78 15.2 -23.47 13.51 -21.77 12.95 -19.89 10.89 -18.58 9.57 -689.59 336.35 -328.28 97.97 -56.31 -24.96 -109.42 25.71 24.21 35.48 148.84 125.95 -1.88 26.27 39.6 4.88 49.55 113.18 173.63 104.92 -4.13 50.68 199.89 146.96 -25.33 40.18 43.16 38.1 -3.19 -22.91 421 293.94 -11.26 20.07 113.93 44.87 61.94 94.41 577.91 343.66 70.38 16.71 103.61 12.39 69.64 60.63 58.37 -14.08 98.17 56.87 283.04 9.95 296.37 -43.73 377.08 -249.08 91.4 -255.45 30.79 -7.13 -11.27 -38.29 83.9 -42.23 148.47 -346.3 210.03 -79.02 81.64 245.7 -58.37 143.39 -95.15 382.15 -140.4 183.75 -12.39 8.26 45.8 12.95 -508.09 380.83 -158.23 28.72 -59.69 120.5 -128.94 -64.19 -503.02 67.95 -292.24 4.13 -468.11 -163.29 -271.04 -171.38 -71.51 39.8 -122.56 -118.44 -102.67 -19.71 -184.13 -155.41 -208.72 -84.83 -167.23 -134.02 -12.02 -49.55 -143.77 -72.27 -71.89 -114.86 -85.4 0 -111.11 -184.88 -264.09 -189.57 4.5 -57.82 -220.54 -187.88 -0.75 2.25 -19.14 3.76 9.2 15.96 -82.59 110.92 33.04 84.84 -120.13 204.97 -37.16 174.36 -13.89 12.57 15.01 7.32 -255.45 592.37 6.38 10.33 -52.18 211.15 -63.44 50.68 19.9 113.37 -91.6 155.03 -137.95 79.39 -309.7 28.35zm3125.49 -3995.09l-11.44 -135.51 5.25 -14.83 -38.86 -23.27 -82.2 -251.14 -82.59 -96.1 -22.15 -92.72 -125.37 -94.78 -12.21 -75.83 -378.58 -254.71 -156.72 -34.71 -103.99 -7.52 -29.09 83.53 88.59 95.92 -111.3 49.35 -3.75 170.06 -62.13 71.32 -45.05 244.76 -53.68 33.21 9.95 32.66 -109.05 309.13 27.59 113.38 -69.82 61.37 -55.37 213.04 -18.96 13.89 6.38 7.69 -152.78 410.11 -71.51 114.31 42.41 27.97 -123.5 227.67 29.28 46.73 -29.28 69.83 56.5 47.68 193.33 -24.97 0 40.54 43.73 -2.44 54.99 -60.06 92.53 23.27 2.07 -5.82 372.76 -113.92 112.24 0 79.58 -57.44 87.28 -4.13 126.51 -67.76 344.98 -282.1 156.73 -390.59 56.12 -381.77 -39.42 -35.3z"/>
     <path class="fil7" d="M5007.94 8835.87l-68.88 116.6 -108.51 62.19 -245.18 22.54 -34.35 -72.92 337.67 -1199.9 50.37 -58.3 -35.75 -7.93 74.15 -155 -15.85 -58.3 78.2 -162.93 -46.49 -62.19 88.77 -104.63 66.23 -177.54 -42.28 -11.97 50.21 -128.42 -221.07 -217.19 42.28 -178.94 283.42 -50.22 11.97 -34.51 46.33 -3.89 62.35 -162.93 -46.49 -31.87 166.97 -368.15 -43.68 -4.04 50.21 -267.56 54.42 -38.4 101.98 -524.55 30.48 4.04 -34.52 -174.9 30.47 -11.82 11.97 -100.74 38.41 -92.66 15.85 -100.74 54.42 -50.22 -27.83 -178.94 47.57 -309.85 54.42 -101.99 -70.28 -58.3 -174.9 31.72 -92.66 -38.4 -128.41 6.68 -11.97 27.83 -120.49 -30.47 -10.57 38.4 -404.07 30.47 -321.81 166.82 0 27.83 -202.73 112.71 -46.33 -86.13 104.63 -170.86 120.48 -127.17 376.24 -209.26 341.72 -66.23 361.61 -39.8 58.3 27.83 72.76 -34.36 321.98 42.29 58.3 -19.9c62.19,-21.14 107.27,-23.79 136.34,-11.81l131.06 58.3 110.07 -18.66 597.31 162.93 58.3 -11.82 131.06 88.62 178.79 23.94 581.61 414.48 19.74 86.13 100.74 30.47 19.9 120.49 70.12 27.83 155 380.12 0 255.74 -27.83 11.82 23.79 100.74 -66.23 178.79 4.04 108.67 -50.37 26.43 -34.36 97.95 -438.42 484.9 -229.16 166.82c-78.2,54.26 -139.14,91.41 -182.83,112.56l-683.44 333.79 -298.03 88.77 -54.26 -23.79 -233.2 54.26 88.77 128.42 128.58 108.67 -4.05 58.3 66.23 7.93 42.45 96.7 154.84 94.06 -3.88 46.33 178.78 131.06 -22.54 35.75 235.85 205.38 -7.93 -50.37 233.04 162.93 -18.5 34.51 166.82 66.23 58.3 88.77 601.35 357.58 84.73 19.9 86.13 10.57 80.84 70.12 66.23 -15.86 88.62 51.61 307.36 10.73 317.93 -46.48 410.59 -271.45 86.13 -241.13 66.23 -14.46 -16.01 -54.41 54.41 -27.83 146.92 -341.72 112.71 -42.29 50.22 150.96 -50.22 124.53 -92.81 372.19 -124.53 162.93 -127.17 85.97 54.41 16.02 -381.52 286.06 -177.54 31.71 -43.69 88.78 -84.73 -42.45 -520.51 70.28 -275.49 4.04 -448.99 -156.4 -299.43 -189.36 -62.19 34.51 -100.74 -96.7 -104.63 -19.9 -178.79 -150.96 -209.26 -84.89 -140.38 -112.55 -14.62 -58.3 -155 -78.05 -82.09 -131.21 -84.73 0 -98.1 -162.93 -243.62 -174.75 3.89 -54.41 -323.06 -275.49 -22.54 58.3 -78.2 14.61 35.75 62.19 -78.2 104.63 34.52 90.17 -108.68 185.32 -34.35 162.93 -74.16 66.23 47.57 23.94 -218.43 508.53 -76.8 -27.82 62.18 100.74 -39.8 158.89 -76.8 62.34 22.55 128.42zm2181.52 -2569.58l364.26 -298.03 166.82 -415.88 62.34 -426.6 -46.32 -42.29 -8.09 -92.81 19.9 -54.26 -66.23 -39.65 -78.04 -239.73 -80.85 -94.06 -23.78 -100.74 -123.29 -92.66 -11.82 -78.2 -416.03 -279.53 -174.74 -38.4 -162.93 -11.82 -60.95 174.75 50.37 54.41 -62.34 27.68 -3.89 189.51 -58.3 66.23 -42.44 233.05 -74.16 46.33 19.9 62.34 -108.67 305.96 22.54 92.66 -54.25 47.73 -54.26 209.26 -58.3 42.44 27.83 34.36 -136.51 365.66 -104.63 166.82 46.33 30.47 -112.55 206.62 31.87 50.37 -54.42 127.17 42.45 27.83 22.54 -31.87 74.16 62.34 144.27 -18.65 0 34.51 147.07 -7.93 46.33 -50.37 112.56 27.83 11.97 -31.87 329.91 -100.59 124.37 0 80.84 -58.3 82.09 -4.04 147.07 -78.05z"/>
    </g>
   </g>
   <path class="fil6" d="M6554.84 0c3620.23,0 6554.84,2970.53 6554.84,6634.91 0,3664.38 -2934.61,6634.9 -6554.84,6634.9 -3620.22,0 -6554.84,-2970.52 -6554.84,-6634.9 0,-3664.38 2934.62,-6634.91 6554.84,-6634.91z"/>
  </g>
 </g>
</svg>
